<svg version="1.0" preserveAspectRatio="xMidYMid meet" height="192" viewBox="0 0 252 143.999998" zoomAndPan="magnify" width="336" xmlns:xlink="http://www.w3.org/1999/xlink" xmlns="http://www.w3.org/2000/svg"><defs><g></g><clipPath id="6b5499b556"><path clip-rule="nonzero" d="M 44.574219 94 L 105 94 L 105 97 L 44.574219 97 Z M 44.574219 94"></path></clipPath><clipPath id="18493b3a93"><path clip-rule="nonzero" d="M 105 90.613281 L 147 90.613281 L 147 103 L 105 103 Z M 105 90.613281"></path></clipPath><clipPath id="c3bc8a45b7"><path clip-rule="nonzero" d="M 113.183594 96.394531 L 138.714844 96.394531 L 138.714844 106.355469 L 113.183594 106.355469 Z M 113.183594 96.394531"></path></clipPath></defs><g fill-opacity="1" fill="#000000"><g transform="translate(35.856445, 83.999997)"><g><path d="M 3.125 -25.609375 C 2.476562 -27.273438 1.882812 -28.410156 1.34375 -29.015625 C 0.800781 -29.617188 0.296875 -30.023438 -0.171875 -30.234375 L -0.171875 -30.796875 L 6.6875 -30.796875 L 6.6875 -30.234375 C 6.039062 -30.023438 5.769531 -29.617188 5.875 -29.015625 C 5.976562 -28.410156 6.351562 -27.273438 7 -25.609375 L 15.484375 -3.828125 L 23.84375 -25.5625 C 24.40625 -27.03125 24.640625 -28.140625 24.546875 -28.890625 C 24.460938 -29.640625 24.039062 -30.085938 23.28125 -30.234375 L 23.28125 -30.796875 L 28.203125 -30.796875 L 28.203125 -30.234375 C 27.617188 -30.023438 27.039062 -29.617188 26.46875 -29.015625 C 25.894531 -28.410156 25.285156 -27.273438 24.640625 -25.609375 L 14.65625 0.21875 L 13.421875 0.21875 Z M 3.125 -25.609375"></path></g></g></g><g fill-opacity="1" fill="#000000"><g transform="translate(63.835463, 83.999997)"><g><path d="M 2.25 0 L 2.25 -0.578125 C 2.914062 -0.773438 3.375 -1.210938 3.625 -1.890625 C 3.875 -2.566406 4 -3.800781 4 -5.59375 L 4 -25.21875 C 4 -27.03125 3.875 -28.265625 3.625 -28.921875 C 3.375 -29.585938 2.914062 -30.023438 2.25 -30.234375 L 2.25 -30.796875 L 22.703125 -30.796875 L 23.1875 -25.078125 L 22.703125 -24.953125 C 21.941406 -26.890625 20.878906 -28.238281 19.515625 -29 C 18.148438 -29.757812 16.335938 -30.140625 14.078125 -30.140625 L 7.609375 -30.140625 L 7.609375 -16.8125 L 13.25 -16.8125 C 14.914062 -16.8125 16.210938 -16.921875 17.140625 -17.140625 C 18.066406 -17.359375 18.738281 -17.691406 19.15625 -18.140625 C 19.582031 -18.597656 19.882812 -19.148438 20.0625 -19.796875 L 20.59375 -19.796875 L 20.59375 -13.15625 L 20.0625 -13.15625 C 19.882812 -13.832031 19.582031 -14.390625 19.15625 -14.828125 C 18.738281 -15.265625 18.066406 -15.59375 17.140625 -15.8125 C 16.210938 -16.03125 14.914062 -16.140625 13.25 -16.140625 L 7.609375 -16.140625 L 7.609375 -2.640625 C 7.609375 -1.316406 8.269531 -0.65625 9.59375 -0.65625 L 15.3125 -0.65625 C 17.425781 -0.65625 19.171875 -1.019531 20.546875 -1.75 C 21.921875 -2.488281 23.003906 -3.882812 23.796875 -5.9375 L 24.28125 -5.859375 L 23.9375 0 Z M 2.25 0"></path></g></g></g><g fill-opacity="1" fill="#000000"><g transform="translate(89.746842, 83.999997)"><g><path d="M 2.25 0 L 2.25 -0.578125 C 2.914062 -0.773438 3.375 -1.210938 3.625 -1.890625 C 3.875 -2.566406 4 -3.800781 4 -5.59375 L 4 -25.21875 C 4 -27.03125 3.875 -28.265625 3.625 -28.921875 C 3.375 -29.585938 2.914062 -30.023438 2.25 -30.234375 L 2.25 -30.796875 L 9.375 -30.796875 L 9.375 -30.234375 C 8.695312 -30.023438 8.234375 -29.585938 7.984375 -28.921875 C 7.734375 -28.265625 7.609375 -27.03125 7.609375 -25.21875 L 7.609375 -2.6875 C 7.609375 -1.363281 8.269531 -0.703125 9.59375 -0.703125 L 14.828125 -0.703125 C 16.941406 -0.703125 18.5625 -1.015625 19.6875 -1.640625 C 20.820312 -2.273438 21.769531 -3.414062 22.53125 -5.0625 L 23.015625 -4.96875 L 22.703125 0 Z M 2.25 0"></path></g></g></g><g fill-opacity="1" fill="#000000"><g transform="translate(113.634586, 83.999997)"><g><path d="M -0.75 0 L -0.75 -0.578125 C -0.132812 -0.773438 0.460938 -1.175781 1.046875 -1.78125 C 1.640625 -2.382812 2.273438 -3.519531 2.953125 -5.1875 L 11.609375 -26.65625 C 11.878906 -27.363281 11.851562 -28.054688 11.53125 -28.734375 L 11.125 -29.65625 L 14.4375 -31.15625 L 25.25 -5.140625 C 25.925781 -3.503906 26.535156 -2.382812 27.078125 -1.78125 C 27.617188 -1.175781 28.125 -0.773438 28.59375 -0.578125 L 28.59375 0 L 21.78125 0 L 21.78125 -0.578125 C 22.457031 -0.773438 22.734375 -1.175781 22.609375 -1.78125 C 22.492188 -2.382812 22.085938 -3.503906 21.390625 -5.140625 L 18.703125 -11.609375 L 6.296875 -11.609375 L 3.703125 -5.1875 C 2.585938 -2.40625 2.757812 -0.867188 4.21875 -0.578125 L 4.21875 0 Z M 6.5625 -12.28125 L 18.4375 -12.28125 L 12.40625 -26.75 Z M 6.5625 -12.28125"></path></g></g></g><g fill-opacity="1" fill="#000000"><g transform="translate(141.349611, 83.999997)"><g><path d="M 12.546875 0.4375 C 10.222656 0.4375 8.132812 0.101562 6.28125 -0.5625 C 4.4375 -1.238281 3.003906 -1.945312 1.984375 -2.6875 L 1.765625 -8.796875 L 2.25 -8.890625 C 2.832031 -7.359375 3.597656 -5.941406 4.546875 -4.640625 C 5.503906 -3.335938 6.71875 -2.296875 8.1875 -1.515625 C 9.65625 -0.742188 11.398438 -0.359375 13.421875 -0.359375 C 14.597656 -0.359375 15.679688 -0.597656 16.671875 -1.078125 C 17.671875 -1.554688 18.46875 -2.234375 19.0625 -3.109375 C 19.664062 -3.992188 19.96875 -5.023438 19.96875 -6.203125 C 19.96875 -7.316406 19.675781 -8.285156 19.09375 -9.109375 C 18.507812 -9.929688 17.75 -10.648438 16.8125 -11.265625 C 15.875 -11.878906 14.882812 -12.410156 13.84375 -12.859375 C 12.800781 -13.316406 11.8125 -13.738281 10.875 -14.125 C 9.132812 -14.832031 7.625 -15.546875 6.34375 -16.265625 C 5.070312 -16.984375 4.09375 -17.847656 3.40625 -18.859375 C 2.71875 -19.867188 2.375 -21.148438 2.375 -22.703125 C 2.375 -24.429688 2.820312 -25.921875 3.71875 -27.171875 C 4.613281 -28.421875 5.867188 -29.390625 7.484375 -30.078125 C 9.097656 -30.765625 10.972656 -31.109375 13.109375 -31.109375 C 15.109375 -31.109375 16.828125 -30.882812 18.265625 -30.4375 C 19.703125 -30 20.84375 -29.546875 21.6875 -29.078125 L 21.875 -23.984375 L 21.421875 -23.84375 C 20.609375 -25.75 19.414062 -27.316406 17.84375 -28.546875 C 16.269531 -29.785156 14.222656 -30.40625 11.703125 -30.40625 C 10.523438 -30.40625 9.429688 -30.175781 8.421875 -29.71875 C 7.410156 -29.269531 6.601562 -28.617188 6 -27.765625 C 5.40625 -26.910156 5.109375 -25.851562 5.109375 -24.59375 C 5.109375 -23.570312 5.351562 -22.675781 5.84375 -21.90625 C 6.34375 -21.144531 7.003906 -20.484375 7.828125 -19.921875 C 8.648438 -19.367188 9.546875 -18.878906 10.515625 -18.453125 C 11.484375 -18.023438 12.4375 -17.625 13.375 -17.25 C 15.019531 -16.601562 16.5625 -15.910156 18 -15.171875 C 19.4375 -14.441406 20.601562 -13.546875 21.5 -12.484375 C 22.394531 -11.429688 22.84375 -10.070312 22.84375 -8.40625 C 22.84375 -6.582031 22.34375 -5.003906 21.34375 -3.671875 C 20.34375 -2.335938 19.054688 -1.316406 17.484375 -0.609375 C 15.921875 0.0859375 14.273438 0.4375 12.546875 0.4375 Z M 12.546875 0.4375"></path></g></g></g><g fill-opacity="1" fill="#000000"><g transform="translate(165.589295, 83.999997)"><g><path d="M 8.75 0 L 8.75 -0.578125 C 9.425781 -0.773438 9.890625 -1.210938 10.140625 -1.890625 C 10.390625 -2.566406 10.515625 -3.800781 10.515625 -5.59375 L 10.515625 -30.09375 L 8.359375 -30.09375 C 6.390625 -30.09375 4.890625 -29.785156 3.859375 -29.171875 C 2.835938 -28.554688 1.945312 -27.457031 1.1875 -25.875 L 0.703125 -25.953125 L 0.96875 -30.796875 L 23.625 -30.796875 L 23.890625 -25.953125 L 23.40625 -25.875 C 22.675781 -27.457031 21.796875 -28.554688 20.765625 -29.171875 C 19.742188 -29.785156 18.234375 -30.09375 16.234375 -30.09375 L 14.171875 -30.09375 L 14.171875 -5.59375 C 14.171875 -3.800781 14.296875 -2.566406 14.546875 -1.890625 C 14.796875 -1.210938 15.253906 -0.773438 15.921875 -0.578125 L 15.921875 0 Z M 8.75 0"></path></g></g></g><g fill-opacity="1" fill="#000000"><g transform="translate(190.224909, 83.999997)"><g><path d="M 2.25 0 L 2.25 -0.578125 C 2.914062 -0.773438 3.375 -1.210938 3.625 -1.890625 C 3.875 -2.566406 4 -3.800781 4 -5.59375 L 4 -25.21875 C 4 -27.03125 3.875 -28.265625 3.625 -28.921875 C 3.375 -29.585938 2.914062 -30.023438 2.25 -30.234375 L 2.25 -30.796875 L 22.703125 -30.796875 L 23.1875 -25.078125 L 22.703125 -24.953125 C 21.941406 -26.890625 20.878906 -28.238281 19.515625 -29 C 18.148438 -29.757812 16.335938 -30.140625 14.078125 -30.140625 L 7.609375 -30.140625 L 7.609375 -16.8125 L 13.25 -16.8125 C 14.914062 -16.8125 16.210938 -16.921875 17.140625 -17.140625 C 18.066406 -17.359375 18.738281 -17.691406 19.15625 -18.140625 C 19.582031 -18.597656 19.882812 -19.148438 20.0625 -19.796875 L 20.59375 -19.796875 L 20.59375 -13.15625 L 20.0625 -13.15625 C 19.882812 -13.832031 19.582031 -14.390625 19.15625 -14.828125 C 18.738281 -15.265625 18.066406 -15.59375 17.140625 -15.8125 C 16.210938 -16.03125 14.914062 -16.140625 13.25 -16.140625 L 7.609375 -16.140625 L 7.609375 -2.640625 C 7.609375 -1.316406 8.269531 -0.65625 9.59375 -0.65625 L 15.3125 -0.65625 C 17.425781 -0.65625 19.171875 -1.019531 20.546875 -1.75 C 21.921875 -2.488281 23.003906 -3.882812 23.796875 -5.9375 L 24.28125 -5.859375 L 23.9375 0 Z M 7.53125 -36.25 C 7.53125 -36.550781 7.785156 -36.847656 8.296875 -37.140625 C 8.804688 -37.429688 9.296875 -37.578125 9.765625 -37.578125 C 10.023438 -37.578125 10.28125 -37.515625 10.53125 -37.390625 C 10.78125 -37.273438 11.15625 -37.015625 11.65625 -36.609375 L 16.0625 -33.046875 L 15.890625 -32.78125 L 8.890625 -35.0625 C 8.328125 -35.238281 7.957031 -35.421875 7.78125 -35.609375 C 7.613281 -35.804688 7.53125 -36.019531 7.53125 -36.25 Z M 7.53125 -36.25"></path></g></g></g><path fill-rule="nonzero" fill-opacity="1" d="M 147.886719 94.621094 C 147.816406 94.773438 147.765625 94.925781 147.761719 95.0625 C 147.753906 95.207031 147.792969 95.339844 147.875 95.453125 C 148.042969 95.671875 148.328125 95.800781 148.613281 95.890625 C 149.195312 96.070312 149.828125 96.117188 150.453125 96.140625 C 151.703125 96.167969 152.972656 96.105469 154.214844 95.960938 L 154.25 95.957031 C 156.445312 95.851562 206.996094 96.285156 206.996094 96.285156 L 206.996094 96.410156 L 180.621094 96.8125 L 167.4375 96.996094 C 165.238281 96.996094 163.039062 96.996094 160.84375 96.929688 C 158.644531 96.875 156.445312 96.847656 154.25 96.742188 L 154.28125 96.738281 C 152.988281 96.792969 151.703125 96.804688 150.414062 96.644531 C 149.769531 96.558594 149.125 96.453125 148.503906 96.199219 C 148.203125 96.066406 147.875 95.90625 147.679688 95.582031 C 147.585938 95.417969 147.554688 95.21875 147.582031 95.042969 C 147.617188 94.855469 147.691406 94.707031 147.773438 94.570312 L 147.886719 94.621094" fill="#000000"></path><g clip-path="url(#6b5499b556)"><path fill-rule="nonzero" fill-opacity="1" d="M 104.015625 94.621094 C 104.082031 94.773438 104.132812 94.925781 104.140625 95.0625 C 104.144531 95.207031 104.105469 95.339844 104.023438 95.453125 C 103.855469 95.671875 103.570312 95.800781 103.285156 95.890625 C 102.703125 96.070312 102.070312 96.117188 101.445312 96.140625 C 100.195312 96.167969 98.925781 96.105469 97.683594 95.960938 L 97.648438 95.957031 C 95.453125 95.851562 44.902344 96.285156 44.902344 96.285156 L 44.902344 96.410156 L 71.277344 96.8125 L 84.464844 96.996094 C 86.660156 96.996094 88.859375 96.996094 91.054688 96.929688 C 93.253906 96.875 95.453125 96.847656 97.648438 96.742188 L 97.617188 96.738281 C 98.910156 96.792969 100.195312 96.804688 101.484375 96.644531 C 102.128906 96.558594 102.773438 96.453125 103.398438 96.199219 C 103.695312 96.066406 104.023438 95.90625 104.21875 95.582031 C 104.3125 95.417969 104.34375 95.21875 104.316406 95.042969 C 104.28125 94.855469 104.207031 94.707031 104.125 94.570312 L 104.015625 94.621094" fill="#000000"></path></g><path fill-rule="nonzero" fill-opacity="1" d="M 126.003906 96.761719 C 125.988281 96.777344 125.96875 96.792969 125.949219 96.804688 C 125.929688 96.792969 125.910156 96.777344 125.894531 96.761719 Z M 125.953125 95.6875 L 126.445312 96.085938 C 126.980469 96.519531 127.757812 96.984375 128.441406 97.324219 C 129.21875 97.722656 129.894531 98.019531 130.679688 98.289062 C 132.210938 98.832031 133.816406 99.183594 135.445312 99.34375 C 138.703125 99.683594 142.023438 99.3125 145.253906 98.585938 C 146.859375 98.214844 148.449219 97.714844 149.871094 96.945312 C 150.214844 96.753906 150.527344 96.542969 150.769531 96.285156 C 150.824219 96.226562 150.90625 96.136719 150.921875 96.101562 L 151.101562 95.835938 C 151.175781 95.683594 151.234375 95.574219 151.261719 95.417969 C 151.417969 94.84375 150.882812 94.257812 150.191406 93.9375 C 149.484375 93.578125 148.753906 93.484375 147.894531 93.523438 C 147.070312 93.535156 146.234375 93.601562 145.414062 93.730469 C 143.769531 93.988281 142.148438 94.484375 140.648438 95.257812 L 140.605469 95.183594 C 142.085938 94.347656 143.703125 93.78125 145.363281 93.460938 C 146.195312 93.296875 147.035156 93.199219 147.878906 93.15625 C 148.710938 93.085938 149.597656 93.144531 150.375 93.515625 C 150.761719 93.691406 151.136719 93.925781 151.417969 94.265625 C 151.703125 94.597656 151.851562 95.066406 151.765625 95.503906 C 151.589844 96.402344 150.882812 97.027344 150.152344 97.445312 C 148.667969 98.285156 147.050781 98.832031 145.414062 99.246094 C 142.144531 100.082031 138.738281 100.449219 135.367188 100.140625 C 133.6875 99.988281 132.019531 99.636719 130.417969 99.082031 C 129.613281 98.816406 128.824219 98.476562 128.074219 98.097656 C 127.328125 97.730469 126.617188 97.320312 125.949219 96.804688 C 125.285156 97.320312 124.570312 97.730469 123.824219 98.097656 C 123.074219 98.476562 122.285156 98.816406 121.484375 99.082031 C 119.878906 99.636719 118.214844 99.988281 116.53125 100.140625 C 113.160156 100.449219 109.753906 100.082031 106.484375 99.246094 C 104.847656 98.832031 103.230469 98.285156 101.75 97.445312 C 101.015625 97.027344 100.308594 96.402344 100.132812 95.503906 C 100.046875 95.066406 100.195312 94.597656 100.480469 94.265625 C 100.761719 93.925781 101.136719 93.691406 101.523438 93.515625 C 102.300781 93.144531 103.1875 93.085938 104.019531 93.15625 C 104.863281 93.199219 105.707031 93.296875 106.535156 93.460938 C 108.195312 93.78125 109.8125 94.347656 111.292969 95.183594 L 111.25 95.257812 C 109.75 94.484375 108.132812 93.988281 106.484375 93.730469 C 105.664062 93.601562 104.828125 93.535156 104.007812 93.523438 C 103.144531 93.484375 102.414062 93.578125 101.710938 93.9375 C 101.015625 94.257812 100.484375 94.84375 100.636719 95.417969 C 100.664062 95.574219 100.726562 95.683594 100.796875 95.835938 L 100.976562 96.101562 C 100.996094 96.136719 101.078125 96.226562 101.128906 96.285156 C 101.371094 96.542969 101.683594 96.753906 102.027344 96.945312 C 103.449219 97.714844 105.039062 98.214844 106.644531 98.585938 C 109.878906 99.3125 113.195312 99.683594 116.457031 99.34375 C 118.085938 99.183594 119.6875 98.832031 121.21875 98.289062 C 122.003906 98.019531 122.679688 97.722656 123.460938 97.324219 C 124.140625 96.984375 124.917969 96.519531 125.453125 96.085938 L 125.953125 95.6875" fill="#000000"></path><g clip-path="url(#18493b3a93)"><path fill-rule="nonzero" fill-opacity="1" d="M 126.011719 91.820312 C 125.992188 91.839844 125.972656 91.863281 125.949219 91.882812 C 125.925781 91.863281 125.90625 91.839844 125.886719 91.820312 Z M 125.953125 90.613281 L 126.523438 91.230469 C 127.132812 91.882812 127.9375 92.582031 128.675781 93.238281 L 129.8125 94.214844 C 130.128906 94.453125 130.617188 94.8125 130.988281 95.035156 C 132.597656 96.066406 134.429688 96.792969 136.316406 97.074219 C 138.203125 97.367188 140.152344 97.226562 142 96.679688 C 142.941406 96.414062 143.839844 96.074219 144.589844 95.589844 C 144.964844 95.347656 145.28125 95.058594 145.515625 94.726562 C 145.742188 94.390625 145.890625 93.988281 145.832031 93.78125 C 145.828125 93.761719 145.8125 93.722656 145.8125 93.722656 C 145.785156 93.65625 145.757812 93.605469 145.757812 93.613281 C 145.746094 93.589844 145.683594 93.515625 145.632812 93.46875 C 145.515625 93.367188 145.347656 93.273438 145.15625 93.199219 C 144.746094 93.050781 144.347656 92.984375 143.824219 92.949219 C 142.867188 92.863281 141.914062 92.914062 140.957031 93.078125 C 139.042969 93.414062 137.214844 94.222656 135.457031 95.164062 C 131.921875 97.03125 128.542969 99.363281 126.066406 102.617188 L 125.996094 102.5625 C 128.382812 99.21875 131.730469 96.75 135.238281 94.761719 C 136.992188 93.769531 138.859375 92.90625 140.847656 92.515625 C 141.84375 92.324219 142.859375 92.253906 143.867188 92.324219 C 144.367188 92.351562 144.882812 92.410156 145.371094 92.582031 C 145.839844 92.742188 146.34375 93.078125 146.480469 93.621094 C 146.601562 94.167969 146.359375 94.6875 146.089844 95.117188 C 145.800781 95.554688 145.414062 95.910156 144.992188 96.199219 C 144.140625 96.773438 143.175781 97.125 142.207031 97.40625 C 140.269531 97.996094 138.207031 98.164062 136.203125 97.863281 C 134.199219 97.578125 132.269531 96.828125 130.546875 95.742188 C 129.675781 95.21875 128.886719 94.5625 128.128906 93.890625 C 127.390625 93.238281 126.640625 92.605469 125.949219 91.882812 C 125.257812 92.605469 124.511719 93.238281 123.769531 93.890625 C 123.011719 94.5625 122.222656 95.21875 121.351562 95.742188 C 119.632812 96.828125 117.699219 97.578125 115.695312 97.863281 C 113.691406 98.164062 111.628906 97.996094 109.691406 97.40625 C 108.722656 97.125 107.757812 96.773438 106.90625 96.199219 C 106.484375 95.910156 106.097656 95.554688 105.808594 95.117188 C 105.539062 94.6875 105.296875 94.167969 105.417969 93.621094 C 105.554688 93.078125 106.058594 92.742188 106.53125 92.582031 C 107.015625 92.410156 107.53125 92.351562 108.03125 92.324219 C 109.039062 92.253906 110.058594 92.324219 111.050781 92.515625 C 113.039062 92.90625 114.90625 93.769531 116.664062 94.761719 C 120.167969 96.75 123.515625 99.21875 125.902344 102.5625 L 125.832031 102.617188 C 123.355469 99.363281 119.976562 97.03125 116.441406 95.164062 C 114.6875 94.222656 112.859375 93.414062 110.945312 93.078125 C 109.984375 92.914062 109.035156 92.863281 108.074219 92.949219 C 107.550781 92.984375 107.15625 93.050781 106.742188 93.199219 C 106.550781 93.273438 106.382812 93.367188 106.265625 93.46875 C 106.214844 93.515625 106.152344 93.589844 106.144531 93.613281 C 106.140625 93.605469 106.113281 93.65625 106.085938 93.722656 C 106.085938 93.722656 106.070312 93.761719 106.066406 93.78125 C 106.011719 93.988281 106.152344 94.390625 106.386719 94.726562 C 106.617188 95.058594 106.9375 95.347656 107.308594 95.589844 C 108.058594 96.074219 108.957031 96.414062 109.898438 96.679688 C 111.746094 97.226562 113.695312 97.367188 115.582031 97.074219 C 117.46875 96.792969 119.300781 96.066406 120.910156 95.035156 C 121.28125 94.8125 121.773438 94.453125 122.089844 94.214844 L 123.226562 93.238281 C 123.964844 92.582031 124.765625 91.882812 125.375 91.230469 L 125.953125 90.613281" fill="#000000"></path></g><g clip-path="url(#c3bc8a45b7)"><path fill-rule="nonzero" fill-opacity="1" d="M 125.949219 106.355469 L 126.28125 105.960938 C 127.125 104.957031 127.992188 103.964844 128.960938 103.082031 L 130.414062 101.761719 C 130.902344 101.320312 131.402344 100.898438 131.917969 100.492188 C 133.988281 98.871094 136.246094 97.460938 138.679688 96.425781 C 136.167969 97.253906 133.78125 98.480469 131.542969 99.949219 C 130.984375 100.320312 130.4375 100.710938 129.902344 101.117188 C 129.363281 101.523438 128.851562 101.957031 128.371094 102.433594 C 127.882812 102.898438 127.402344 103.371094 126.949219 103.871094 C 126.59375 104.230469 126.273438 104.625 125.949219 105.011719 C 125.625 104.625 125.304688 104.230469 124.949219 103.871094 C 124.496094 103.371094 124.015625 102.898438 123.53125 102.433594 C 123.050781 101.957031 122.535156 101.523438 121.996094 101.117188 C 121.460938 100.710938 120.914062 100.320312 120.355469 99.949219 C 118.121094 98.480469 115.730469 97.253906 113.21875 96.425781 C 115.65625 97.460938 117.910156 98.871094 119.980469 100.492188 C 120.496094 100.898438 121 101.320312 121.484375 101.761719 L 122.9375 103.082031 C 123.910156 103.964844 124.773438 104.957031 125.613281 105.960938 L 125.949219 106.355469" fill="#000000"></path></g></svg>